# xmcd CD database file
#
# Track frame offsets:
#	150
#	15625
#	36565
#	51947
#
# Disc length: 968 seconds
#
# Revision: 0
# Processed by: cddbd v1.5.1PL0 Copyright (c) Steve Scherf et al.
# Submitted via: CDex 1.51
#
DISCID=3003c604
DTITLE=Blue-Eye-Land - 愛の劇場 新・天までとどけ
DYEAR=2000
DGENRE=JPop
TTITLE0=涙くんさよなら
TTITLE1=手のひら
TTITLE2=涙くんさよなら[オリジナル・カラオケ]
TTITLE3=手のひら[オリジナル・カラオケ]
EXTD=YEAR: 2000
EXTT0=
EXTT1=
EXTT2=
EXTT3=
PLAYORDER=
